<svg xmlns="http://www.w3.org/2000/svg" width="24" height="24" viewBox="0 0 24 24" fill="none"><mask id="mask0_648_6926" style="mask-type:alpha" maskUnits="userSpaceOnUse" x="0" y="0" width="24" height="24"><rect width="24" height="24" fill="#D9D9D9"></rect></mask><g mask="url(#mask0_648_6926)"><path d="M7 18.8211C6.45 18.8211 5.97917 18.6379 5.5875 18.2715C5.19583 17.9051 5 17.4646 5 16.9501C5 16.4355 5.19583 15.9951 5.5875 15.6286C5.97917 15.2622 6.45 15.079 7 15.079C7.55 15.079 8.02083 15.2622 8.4125 15.6286C8.80417 15.9951 9 16.4355 9 16.9501C9 17.4646 8.80417 17.9051 8.4125 18.2715C8.02083 18.6379 7.55 18.8211 7 18.8211ZM17 18.8211C16.45 18.8211 15.9792 18.6379 15.5875 18.2715C15.1958 17.9051 15 17.4646 15 16.9501C15 16.4355 15.1958 15.9951 15.5875 15.6286C15.9792 15.2622 16.45 15.079 17 15.079C17.55 15.079 18.0208 15.2622 18.4125 15.6286C18.8042 15.9951 19 16.4355 19 16.9501C19 17.4646 18.8042 17.9051 18.4125 18.2715C18.0208 18.6379 17.55 18.8211 17 18.8211ZM6.15 3.8527L8.55 8.53034H15.55L18.3 3.8527H6.15ZM5.2 1.98165H19.95C20.3333 1.98165 20.625 2.14147 20.825 2.46111C21.025 2.78074 21.0333 3.10428 20.85 3.43172L17.3 9.41909C17.1167 9.73093 16.8708 9.97261 16.5625 10.1441C16.2542 10.3156 15.9167 10.4014 15.55 10.4014H8.1L7 12.2724H18C18.2833 12.2724 18.5208 12.3621 18.7125 12.5414C18.9042 12.7207 19 12.9429 19 13.208C19 13.473 18.9042 13.6952 18.7125 13.8745C18.5208 14.0538 18.2833 14.1435 18 14.1435H7C6.25 14.1435 5.68333 13.8356 5.3 13.2197C4.91667 12.6038 4.9 11.9918 5.25 11.3837L6.6 9.09165L3 1.98165H2C1.71667 1.98165 1.47917 1.89199 1.2875 1.71269C1.09583 1.53338 1 1.31119 1 1.04612C1 0.781056 1.09583 0.558869 1.2875 0.37956C1.47917 0.20025 1.71667 0.110596 2 0.110596H3.625C3.80833 0.110596 3.98333 0.157372 4.15 0.250925C4.31667 0.344477 4.44167 0.47701 4.525 0.648524L5.2 1.98165Z" fill="white"></path></g></svg>