<svg width="27" height="20" viewBox="0 0 27 20" fill="none" xmlns="http://www.w3.org/2000/svg">
<path d="M9.80568 15.8611L24.5974 1.06947C24.8764 0.79169 25.2077 0.652802 25.5913 0.652802C25.975 0.652802 26.3057 0.792178 26.5835 1.07093C26.8612 1.34968 27.0001 1.68069 27.0001 2.06397C27.0001 2.44725 26.8612 2.77777 26.5835 3.05555L10.7779 18.8611C10.5001 19.1389 10.1761 19.2778 9.80568 19.2778C9.43532 19.2778 9.11125 19.1389 8.83347 18.8611L1.38901 11.4167C1.11124 11.1376 0.979291 10.8063 0.99318 10.4227C1.00707 10.039 1.15339 9.70833 1.43214 9.43055C1.71089 9.15277 2.0419 9.01389 2.42518 9.01389C2.80849 9.01389 3.13903 9.15277 3.41681 9.43055L9.80568 15.8611Z" fill="#FF0055"/>
</svg>
