<svg xmlns="http://www.w3.org/2000/svg" width="24" height="24" viewBox="0 0 24 24" fill="none"><mask id="mask0_648_6929" style="mask-type:alpha" maskUnits="userSpaceOnUse" x="0" y="0" width="24" height="24"><rect width="24" height="24" fill="#D9D9D9"></rect></mask><g mask="url(#mask0_648_6929)"><path d="M12 17.2542C11.7667 17.2542 11.5292 17.2152 11.2875 17.1372C11.0458 17.0593 10.8333 16.9345 10.65 16.763L8.925 15.2896C7.15833 13.7771 5.5625 12.2764 4.1375 10.7874C2.7125 9.29831 2 7.65724 2 5.86415C2 4.39849 2.525 3.17451 3.575 2.1922C4.625 1.2099 5.93333 0.71875 7.5 0.71875C8.38333 0.71875 9.21667 0.894161 10 1.24498C10.7833 1.59581 11.45 2.07526 12 2.68336C12.55 2.07526 13.2167 1.59581 14 1.24498C14.7833 0.894161 15.6167 0.71875 16.5 0.71875C18.0667 0.71875 19.375 1.2099 20.425 2.1922C21.475 3.17451 22 4.39849 22 5.86415C22 7.65724 21.2917 9.30221 19.875 10.7991C18.4583 12.2959 16.85 13.8005 15.05 15.313L13.35 16.763C13.1667 16.9345 12.9542 17.0593 12.7125 17.1372C12.4708 17.2152 12.2333 17.2542 12 17.2542ZM11.05 4.55441C10.5667 3.91513 10.05 3.42788 9.5 3.09265C8.95 2.75742 8.28333 2.5898 7.5 2.5898C6.5 2.5898 5.66667 2.90165 5 3.52533C4.33333 4.14901 4 4.92862 4 5.86415C4 6.67494 4.30833 7.5364 4.925 8.44854C5.54167 9.36068 6.27917 10.2455 7.1375 11.1031C7.99583 11.9607 8.87917 12.7637 9.7875 13.5121C10.6958 14.2605 11.4333 14.8764 12 15.3597C12.5667 14.8764 13.3042 14.2605 14.2125 13.5121C15.1208 12.7637 16.0042 11.9607 16.8625 11.1031C17.7208 10.2455 18.4583 9.36068 19.075 8.44854C19.6917 7.5364 20 6.67494 20 5.86415C20 4.92862 19.6667 4.14901 19 3.52533C18.3333 2.90165 17.5 2.5898 16.5 2.5898C15.7167 2.5898 15.05 2.75742 14.5 3.09265C13.95 3.42788 13.4333 3.91513 12.95 4.55441C12.8333 4.71033 12.6917 4.82727 12.525 4.90523C12.3583 4.98319 12.1833 5.02217 12 5.02217C11.8167 5.02217 11.6417 4.98319 11.475 4.90523C11.3083 4.82727 11.1667 4.71033 11.05 4.55441Z" fill="white"></path></g></svg>